<svg width="25" height="25" viewBox="0 0 25 25" fill="none" xmlns="http://www.w3.org/2000/svg">
<rect width="25" height="25" fill="#0B3D33"/>
<path d="M20.4997 16.4999C20.4997 16.8507 20.401 17.1759 20.243 17.462L15.1911 11.8097L20.1882 7.43765C20.3826 7.74614 20.4997 8.10851 20.4997 8.50009V16.4999ZM12.4997 12.836L19.453 6.752C19.1676 6.59579 18.8463 6.5 18.4997 6.5H6.49965C6.15262 6.5 5.83121 6.59579 5.54703 6.752L12.4997 12.836ZM14.4382 12.4679L12.8287 13.8771C12.7346 13.9591 12.6173 14 12.4997 14C12.382 14 12.2647 13.9591 12.1706 13.8771L10.5607 12.4678L5.44497 18.1924C5.75161 18.3848 6.11097 18.5 6.49962 18.5H18.4997C18.8883 18.5 19.2478 18.3848 19.5544 18.1924L14.4382 12.4679ZM4.81122 7.43762C4.61686 7.74611 4.49966 8.10847 4.49966 8.50009V16.5C4.49966 16.8507 4.59786 17.1759 4.75651 17.462L9.80778 11.8087L4.81122 7.43762Z" fill="#929AA2"/>
</svg>
