<svg class="mobile-svg" width="121" height="102" viewBox="0 0 121 102" fill="none" xmlns="http://www.w3.org/2000/svg">
<path d="M30.2502 70.9507L34.591 55.6247C31.0903 49.6545 29.9781 42.6877 31.4584 36.0029C32.9388 29.318 36.9125 23.3634 42.6502 19.2318C48.388 15.1002 55.505 13.0687 62.6952 13.51C69.8855 13.9514 76.6667 16.8361 81.7945 21.6347C86.9222 26.4333 90.0526 32.824 90.6112 39.634C91.1698 46.4441 89.1192 53.2167 84.8355 58.709C80.5518 64.2014 74.3225 68.0452 67.2907 69.535C60.2589 71.0247 52.8961 70.0606 46.5536 66.8195L30.2502 70.9507ZM47.3397 61.0844L48.348 61.6514C52.942 64.2328 58.3078 65.301 63.6091 64.6896C68.9104 64.0782 73.8494 61.8215 77.6565 58.2712C81.4636 54.7209 83.925 50.0765 84.657 45.0616C85.389 40.0467 84.3505 34.9432 81.7034 30.5462C79.0563 26.1493 74.9493 22.7059 70.0223 20.7528C65.0954 18.7997 59.6253 18.4465 54.4644 19.7482C49.3036 21.05 44.742 23.9336 41.4904 27.9496C38.2388 31.9657 36.48 36.8886 36.4879 41.9513C36.4836 46.149 37.7082 50.2656 40.0254 53.8427L40.6577 54.8309L38.231 63.3849L47.3397 61.0844Z" fill="#00D95F"/>
<path fill-rule="evenodd" clip-rule="evenodd" d="M71.8115 45.8864C71.2204 45.4345 70.5283 45.1164 69.7879 44.9564C69.0475 44.7963 68.2784 44.7986 67.5391 44.963C66.4283 45.4004 65.7105 47.0529 64.9927 47.8791C64.8414 48.0772 64.619 48.2161 64.3673 48.2698C64.1156 48.3235 63.8518 48.2883 63.6256 48.1708C59.5588 46.6608 56.15 43.8917 53.9529 40.3134C53.7655 40.0901 53.6768 39.8066 53.7055 39.5225C53.7342 39.2385 53.878 38.976 54.1067 38.7905C54.9073 38.0392 55.495 37.1087 55.8157 36.085C55.8869 34.9558 55.614 33.831 55.0295 32.8448C54.5777 31.4622 53.7179 30.231 52.5516 29.2968C51.95 29.0404 51.283 28.9544 50.6311 29.0492C49.9791 29.1441 49.37 29.4158 48.8773 29.8315C48.0219 30.5311 47.343 31.4037 46.8905 32.385C46.438 33.3663 46.2234 34.4314 46.2626 35.5017C46.2653 36.1028 46.3456 36.7013 46.5019 37.2838C46.8987 38.6834 47.509 40.0206 48.3134 41.253C48.8937 42.1971 49.5269 43.111 50.2103 43.991C52.4312 46.8811 55.2228 49.3351 58.4304 51.2165C60.0399 52.1726 61.7602 52.9499 63.5572 53.5332C65.4239 54.3354 67.485 54.6433 69.5215 54.4243C70.6818 54.2578 71.7811 53.8235 72.7228 53.1596C73.6645 52.4957 74.4196 51.6226 74.9217 50.6171C75.2168 50.0096 75.3063 49.3306 75.1781 48.673C74.8705 47.3283 72.9735 46.5345 71.8115 45.8864Z" fill="#00D95F"/>
</svg>
